<?xml version="1.0" encoding="utf-8"?>
<!-- Generator: Adobe Illustrator 18.1.0, SVG Export Plug-In . SVG Version: 6.00 Build 0)  -->
<svg version="1.1" id="Layer_1" xmlns="http://www.w3.org/2000/svg" xmlns:xlink="http://www.w3.org/1999/xlink" x="0px" y="0px"
	 viewBox="0 0 69.7 134.7" enable-background="new 0 0 69.7 134.7" xml:space="preserve">
<g>
	<path fill-rule="evenodd" clip-rule="evenodd" fill="#FFFFFF" d="M23.9,30c5.3-3.3,10.2-4.6,14.9-3.9c-2.1,4.9-8,8.8-13.3,8.2
		c-3.3-0.4-4.9,0.7-5.8,3.8c-0.6,2-1.4,3.9-2,5.7c4.6-2.5,9-4.8,13.6-7.3c0.5,4.9-5.7,12.4-10.4,13.2c-6.1,1-5.3,2.1-6.1,7.2
		c-0.3,1.9-0.3,3.9-0.5,5.5c3.8-3.9,7.6-7.9,11.9-12.4c1,7.4-2.7,14.8-8.1,17.6c-3.7,1.9-4,2.6-3.3,6.8c0.4,2.2,0.8,4.4,1.3,7
		c1.5-3.2,2.6-5.9,4.1-8.4c1.5-2.4,3.3-4.6,5.1-6.9c2.7,5.6,0.2,15-4.9,19.2c-2,1.6-2.5,3.5-1.5,5.8c1.4,3.1,3,6.2,4.6,9.4
		c0.2-3.3,0.2-6.4,0.8-9.3c0.6-3,1.9-5.8,2.9-8.9c4.2,4.9,4.9,13.6,1.5,19.3c-1.7,2.8-1.7,4.8,0.7,7.1c1.7,1.6,3.1,3.7,5.1,5.2
		c-2.6-5.9-1.6-11.7-1.1-17.7c5.3,3.3,8.4,11.5,6.7,18.3c-0.7,2.7-0.2,4.4,2.2,5.7c2.9,1.5,5.7,3.2,8.8,4.5
		c-4.7-4.3-5.5-10.1-6.9-15.9c6,1.1,11.4,7.6,11.6,14.2c0.1,3,1.2,4.4,3.9,4.8c2.8,0.4,5.5,1,8.2,1.5c0.6,0.1,1.2,0.4,1.7,0.5
		c0,0.3-0.1,0.6-0.1,0.8c-3.3-0.5-6.7-0.9-10-1.6c-2.1-0.5-3.6-0.1-5,1.7c-1.1,1.3-2.7,2.4-4.3,2.9c-5.7,1.8-11.3,1.6-17.3-1.2
		c5-5.1,10.8-6.4,17.9-5.9c-3.7-2.1-6.5-3.9-9.5-5.4c-0.7-0.4-2.1-0.3-2.7,0.1c-3.8,3-8,2.6-12.2,1.5c-3.6-0.9-7-2.3-9.8-5.5
		c6.5-2.8,12.6-3.1,18.4-0.2c-2.4-2.8-4.9-5.8-7.7-8.7c-0.5-0.5-2-0.4-2.9-0.2c-6.5,1.7-16.2-4.1-18.1-11c5.7-1.4,9.8,0.2,18.1,6.5
		c-0.5-0.7-1-1.4-1.4-2.2c-1.2-2.3-2.6-4.5-3.7-6.8c-1.3-3-2.6-5.4-6.4-5.1c-1.6,0.1-3.5-1.2-4.8-2.4c-4-3.4-7-7.6-8.2-13.1
		c5.6,0.6,7.1,1.7,15.7,11c-0.8-4.3-1.4-8.1-2.3-11.8c-0.2-0.7-1.1-1.5-1.8-1.7c-4.3-1-6.3-4.4-7.9-8.1C2.1,59.7,1,56,1.3,51.9
		C6,53.6,7.9,56,13.4,67.2c0-4.5,0-8.2,0-11.9c0-0.4-0.3-1.1-0.7-1.3c-5.5-2.9-5.9-8.3-6.2-13.7c-0.1-2.5,0.4-5.1,0.6-7.9
		c4.7,3.3,6,6.3,8.3,15.9c0.8-3.1,1.7-6.2,2.4-9.4c0.1-0.5-0.3-1.5-0.7-1.8c-3.6-3-3.6-7-2.9-11c0.6-3.5,1.7-6.8,2.9-10.2
		c4.2,5.2,4.6,11.1,3.9,17.3"/>
	<path fill-rule="evenodd" clip-rule="evenodd" fill="#FFFFFF" d="M31.3,2c1.8,6.8,1.3,13.1-2.9,19c5.3-6.7,12.2-5.3,19.6-4.7
		c-4.2,4.9-8.9,7.1-14.4,5.8c-2.9-0.7-5.1-0.6-6.5,2.1C21.4,15.4,24.9,8.4,31.3,2z"/>
	<path fill-rule="evenodd" clip-rule="evenodd" fill="#FFFFFF" d="M51.2,0c-0.6,6.3-5.4,10.6-13.4,12.2C37.2,6.4,40.8,3.1,51.2,0z"
		/>
</g>
</svg>
